<?xml version="1.0" encoding="UTF-8"?>
<svg width="22px" height="20px" viewBox="0 0 22 20" version="1.1" xmlns="http://www.w3.org/2000/svg" xmlns:xlink="http://www.w3.org/1999/xlink">
    <!-- Generator: Sketch 48.2 (47327) - http://www.bohemiancoding.com/sketch -->
    <title>artisanal</title>
    <desc>Created with Sketch.</desc>
    <defs></defs>
    <g id="Desktop-HD/03.Homepage---search-user-input" stroke="none" stroke-width="1" fill="none" fill-rule="evenodd" transform="translate(-151.000000, -518.000000)">
        <g id="pics" transform="translate(107.000000, 264.000000)" fill="#FFFFFF" fill-rule="nonzero">
            <g id="Row-1">
                <g id="hover-product" transform="translate(0.000000, 236.000000)">
                    <g id="sustainable-fashion-labels" transform="translate(0.000000, 13.000000)">
                        <g id="Group-3" transform="translate(16.000000, 5.000000)">
                            <g id="artisanal" transform="translate(28.959596, 0.000000)">
                                <polygon id="Shape" points="9.54545455 2.85714286 9.54545455 3.80952381 9.54545455 4.76190476 9.54545455 5.71428571 9.54545455 6.66666667 9.54545455 7.61904762 9.54545455 8.57142857 10.5 8.57142857 10.5 7.61904762 10.5 6.66666667 10.5 5.71428571 10.5 4.76190476 10.5 3.80952381 10.5 2.85714286 10.5 1.9047619 10.5 0.952380952 9.54545455 0.952380952 9.54545455 1.9047619"></polygon>
                                <rect id="Rectangle-path" x="20.0454545" y="10.4761905" width="1" height="1"></rect>
                                <rect id="Rectangle-path" x="20.0454545" y="8.57142857" width="1" height="1"></rect>
                                <rect id="Rectangle-path" x="10.5" y="0" width="1" height="1"></rect>
                                <polygon id="Shape" points="19.0909091 9.52380952 18.1363636 9.52380952 17.1818182 9.52380952 16.2272727 9.52380952 15.2727273 9.52380952 14.3181818 9.52380952 13.3636364 9.52380952 12.4090909 9.52380952 12.4090909 10.4761905 13.3636364 10.4761905 14.3181818 10.4761905 15.2727273 10.4761905 16.2272727 10.4761905 17.1818182 10.4761905 18.1363636 10.4761905 19.0909091 10.4761905 20.0454545 10.4761905 20.0454545 9.52380952"></polygon>
                                <rect id="Rectangle-path" x="10.5" y="9.52380952" width="1" height="1"></rect>
                                <rect id="Rectangle-path" x="15.2727273" y="12.3809524" width="1" height="1"></rect>
                                <rect id="Rectangle-path" x="13.3636364" y="12.3809524" width="1" height="1"></rect>
                                <rect id="Rectangle-path" x="19.0909091" y="12.3809524" width="1" height="1"></rect>
                                <rect id="Rectangle-path" x="17.1818182" y="12.3809524" width="1" height="1"></rect>
                                <rect id="Rectangle-path" x="6.68181818" y="11.4285714" width="1" height="1"></rect>
                                <rect id="Rectangle-path" x="6.68181818" y="13.3333333" width="1" height="1"></rect>
                                <rect id="Rectangle-path" x="6.68181818" y="1.9047619" width="1" height="1"></rect>
                                <rect id="Rectangle-path" x="6.68181818" y="7.61904762" width="1" height="1"></rect>
                                <rect id="Rectangle-path" x="6.68181818" y="5.71428571" width="1" height="1"></rect>
                                <rect id="Rectangle-path" x="6.68181818" y="3.80952381" width="1" height="1"></rect>
                                <rect id="Rectangle-path" x="14.3181818" y="13.3333333" width="1" height="1"></rect>
                                <rect id="Rectangle-path" x="16.2272727" y="13.3333333" width="1" height="1"></rect>
                                <rect id="Rectangle-path" x="18.1363636" y="13.3333333" width="1" height="1"></rect>
                                <rect id="Rectangle-path" x="8.59090909" y="0" width="1" height="1"></rect>
                                <rect id="Rectangle-path" x="16.2272727" y="11.4285714" width="1" height="1"></rect>
                                <rect id="Rectangle-path" x="14.3181818" y="11.4285714" width="1" height="1"></rect>
                                <rect id="Rectangle-path" x="18.1363636" y="11.4285714" width="1" height="1"></rect>
                                <rect id="Rectangle-path" x="7.63636364" y="12.3809524" width="1" height="1"></rect>
                                <rect id="Rectangle-path" x="7.63636364" y="4.76190476" width="1" height="1"></rect>
                                <rect id="Rectangle-path" x="7.63636364" y="2.85714286" width="1" height="1"></rect>
                                <rect id="Rectangle-path" x="7.63636364" y="6.66666667" width="1" height="1"></rect>
                                <rect id="Rectangle-path" x="15.2727273" y="2.85714286" width="1" height="1"></rect>
                                <rect id="Rectangle-path" x="15.2727273" y="4.76190476" width="1" height="1"></rect>
                                <rect id="Rectangle-path" x="12.4090909" y="0" width="1" height="1"></rect>
                                <rect id="Rectangle-path" x="18.1363636" y="7.61904762" width="1" height="1"></rect>
                                <rect id="Rectangle-path" x="14.3181818" y="7.61904762" width="1" height="1"></rect>
                                <rect id="Rectangle-path" x="16.2272727" y="7.61904762" width="1" height="1"></rect>
                                <polygon id="Shape" points="11.4545455 2.85714286 11.4545455 3.80952381 11.4545455 4.76190476 11.4545455 5.71428571 11.4545455 6.66666667 11.4545455 7.61904762 11.4545455 8.57142857 12.4090909 8.57142857 12.4090909 7.61904762 12.4090909 6.66666667 12.4090909 5.71428571 12.4090909 4.76190476 12.4090909 3.80952381 12.4090909 2.85714286 12.4090909 1.9047619 12.4090909 0.952380952 11.4545455 0.952380952 11.4545455 1.9047619"></polygon>
                                <rect id="Rectangle-path" x="16.2272727" y="5.71428571" width="1" height="1"></rect>
                                <rect id="Rectangle-path" x="14.3181818" y="5.71428571" width="1" height="1"></rect>
                                <rect id="Rectangle-path" x="14.3181818" y="3.80952381" width="1" height="1"></rect>
                                <rect id="Rectangle-path" x="14.3181818" y="1.9047619" width="1" height="1"></rect>
                                <rect id="Rectangle-path" x="18.1363636" y="5.71428571" width="1" height="1"></rect>
                                <rect id="Rectangle-path" x="13.3636364" y="6.66666667" width="1" height="1"></rect>
                                <rect id="Rectangle-path" x="13.3636364" y="4.76190476" width="1" height="1"></rect>
                                <rect id="Rectangle-path" x="15.2727273" y="6.66666667" width="1" height="1"></rect>
                                <rect id="Rectangle-path" x="17.1818182" y="6.66666667" width="1" height="1"></rect>
                                <rect id="Rectangle-path" x="13.3636364" y="2.85714286" width="1" height="1"></rect>
                                <rect id="Rectangle-path" x="19.0909091" y="6.66666667" width="1" height="1"></rect>
                                <rect id="Rectangle-path" x="1.90909091" y="6.66666667" width="1" height="1"></rect>
                                <polygon id="Shape" points="2.86363636 10.4761905 3.81818182 10.4761905 4.77272727 10.4761905 5.72727273 10.4761905 6.68181818 10.4761905 7.63636364 10.4761905 8.59090909 10.4761905 9.54545455 10.4761905 9.54545455 9.52380952 8.59090909 9.52380952 7.63636364 9.52380952 6.68181818 9.52380952 5.72727273 9.52380952 4.77272727 9.52380952 3.81818182 9.52380952 2.86363636 9.52380952 1.90909091 9.52380952 0.954545455 9.52380952 0.954545455 10.4761905 1.90909091 10.4761905"></polygon>
                                <rect id="Rectangle-path" x="1.90909091" y="12.3809524" width="1" height="1"></rect>
                                <rect id="Rectangle-path" x="10.5" y="19.047619" width="1" height="1"></rect>
                                <rect id="Rectangle-path" x="0" y="8.57142857" width="1" height="1"></rect>
                                <rect id="Rectangle-path" x="0" y="10.4761905" width="1" height="1"></rect>
                                <rect id="Rectangle-path" x="8.59090909" y="19.047619" width="1" height="1"></rect>
                                <rect id="Rectangle-path" x="12.4090909" y="19.047619" width="1" height="1"></rect>
                                <rect id="Rectangle-path" x="14.3181818" y="15.2380952" width="1" height="1"></rect>
                                <rect id="Rectangle-path" x="4.77272727" y="13.3333333" width="1" height="1"></rect>
                                <rect id="Rectangle-path" x="4.77272727" y="11.4285714" width="1" height="1"></rect>
                                <rect id="Rectangle-path" x="6.68181818" y="15.2380952" width="1" height="1"></rect>
                                <rect id="Rectangle-path" x="4.77272727" y="7.61904762" width="1" height="1"></rect>
                                <rect id="Rectangle-path" x="4.77272727" y="5.71428571" width="1" height="1"></rect>
                                <rect id="Rectangle-path" x="15.2727273" y="14.2857143" width="1" height="1"></rect>
                                <rect id="Rectangle-path" x="5.72727273" y="12.3809524" width="1" height="1"></rect>
                                <rect id="Rectangle-path" x="13.3636364" y="14.2857143" width="1" height="1"></rect>
                                <rect id="Rectangle-path" x="5.72727273" y="14.2857143" width="1" height="1"></rect>
                                <rect id="Rectangle-path" x="7.63636364" y="14.2857143" width="1" height="1"></rect>
                                <rect id="Rectangle-path" x="5.72727273" y="4.76190476" width="1" height="1"></rect>
                                <rect id="Rectangle-path" x="5.72727273" y="6.66666667" width="1" height="1"></rect>
                                <rect id="Rectangle-path" x="5.72727273" y="2.85714286" width="1" height="1"></rect>
                                <rect id="Rectangle-path" x="2.86363636" y="13.3333333" width="1" height="1"></rect>
                                <rect id="Rectangle-path" x="2.86363636" y="7.61904762" width="1" height="1"></rect>
                                <rect id="Rectangle-path" x="2.86363636" y="5.71428571" width="1" height="1"></rect>
                                <rect id="Rectangle-path" x="2.86363636" y="11.4285714" width="1" height="1"></rect>
                                <rect id="Rectangle-path" x="6.68181818" y="17.1428571" width="1" height="1"></rect>
                                <polygon id="Shape" points="10.5 17.1428571 10.5 16.1904762 10.5 15.2380952 10.5 14.2857143 10.5 13.3333333 10.5 12.3809524 10.5 11.4285714 9.54545455 11.4285714 9.54545455 12.3809524 9.54545455 13.3333333 9.54545455 14.2857143 9.54545455 15.2380952 9.54545455 16.1904762 9.54545455 17.1428571 9.54545455 18.0952381 9.54545455 19.047619 10.5 19.047619 10.5 18.0952381"></polygon>
                                <polygon id="Shape" points="12.4090909 17.1428571 12.4090909 16.1904762 12.4090909 15.2380952 12.4090909 14.2857143 12.4090909 13.3333333 12.4090909 12.3809524 12.4090909 11.4285714 11.4545455 11.4285714 11.4545455 12.3809524 11.4545455 13.3333333 11.4545455 14.2857143 11.4545455 15.2380952 11.4545455 16.1904762 11.4545455 17.1428571 11.4545455 18.0952381 11.4545455 19.047619 12.4090909 19.047619 12.4090909 18.0952381"></polygon>
                                <rect id="Rectangle-path" x="14.3181818" y="17.1428571" width="1" height="1"></rect>
                                <rect id="Rectangle-path" x="15.2727273" y="16.1904762" width="1" height="1"></rect>
                                <rect id="Rectangle-path" x="13.3636364" y="16.1904762" width="1" height="1"></rect>
                                <rect id="Rectangle-path" x="5.72727273" y="16.1904762" width="1" height="1"></rect>
                                <rect id="Rectangle-path" x="7.63636364" y="16.1904762" width="1" height="1"></rect>
                                <rect id="Rectangle-path" x="3.81818182" y="6.66666667" width="1" height="1"></rect>
                                <rect id="Rectangle-path" x="3.81818182" y="12.3809524" width="1" height="1"></rect>
                            </g>
                        </g>
                    </g>
                </g>
            </g>
        </g>
    </g>
</svg>