<?xml version="1.0" encoding="UTF-8"?>
<svg width="55px" height="50px" viewBox="0 0 55 50" version="1.1" xmlns="http://www.w3.org/2000/svg" xmlns:xlink="http://www.w3.org/1999/xlink">
    <!-- Generator: Sketch 48.2 (47327) - http://www.bohemiancoding.com/sketch -->
    <title>basket</title>
    <desc>Created with Sketch.</desc>
    <defs></defs>
    <g id="desktop/button/icon" stroke="none" stroke-width="1" fill="none" fill-rule="evenodd" transform="translate(-50.000000, -26.000000)">
        <g id="button" fill="#FFFFFF" fill-rule="nonzero">
            <g id="basket" transform="translate(50.000000, 26.000000)">
                <path d="M1.2503017,4.04139117e-05 C0.559760073,4.04139117e-05 0,0.559683782 0,1.25003956 C0,1.94039534 0.559760073,2.50003871 1.2503017,2.50003871 L7.73624161,2.50003871 L14.3198309,33.6328237 C14.2526897,34.3450107 14.9141618,35.0359477 15.6287717,35.0000102 L46.8863137,35.0000102 C47.5468481,35.0093852 48.1544322,34.4105107 48.1544322,33.7500111 C48.1544322,33.0895741 47.5468481,32.4906995 46.8863137,32.500012 L16.6446419,32.500012 L15.5896998,27.5000154 L49.3869171,27.5000154 C49.9467397,27.4937654 50.4756798,27.0695782 50.5981469,26.5234535 L54.9742029,7.77347885 C55.1368046,7.04802935 54.50659,6.25535489 53.7629731,6.25004239 L11.0964281,6.25004239 L9.98290936,0.976602247 C9.85900446,0.424115124 9.31843652,-0.00479083279 8.75211174,4.04139117e-05 L1.2503017,4.04139117e-05 Z M11.6239303,8.75004069 L52.200096,8.75004069 L48.3905517,25.0000171 L15.06226,25.0000171 L11.6239303,8.75004069 Z M21.8802796,38.7500077 C18.787784,38.7500077 16.2539226,41.2831935 16.2539226,44.3750038 C16.2539226,47.4668142 18.787784,50 21.8802796,50 C24.9728384,50 27.5066373,47.4668142 27.5066373,44.3750038 C27.5066373,41.283256 24.9728384,38.7500077 21.8802796,38.7500077 Z M40.6348052,38.7500077 C37.542309,38.7500077 35.0084475,41.2831935 35.0084475,44.3750038 C35.0084475,47.4668142 37.542309,50 40.6348052,50 C43.7273639,50 46.2611629,47.4668142 46.2611629,44.3750038 C46.2611629,41.283256 43.7273639,38.7500077 40.6348052,38.7500077 Z M21.8802796,41.250006 C23.6213873,41.250006 25.0060339,42.6343175 25.0060339,44.3750038 C25.0060339,46.1157527 23.6213873,47.5000017 21.8802796,47.5000017 C20.1392351,47.5000017 18.754526,46.1156902 18.754526,44.3750038 C18.754526,42.63438 20.1392351,41.250006 21.8802796,41.250006 Z M40.6348052,41.250006 C42.3759128,41.250006 43.7605594,42.6343175 43.7605594,44.3750038 C43.7605594,46.1157527 42.3759128,47.5000017 40.6348052,47.5000017 C38.8937601,47.5000017 37.5090509,46.1156902 37.5090509,44.3750038 C37.5090509,42.63438 38.8937601,41.250006 40.6348052,41.250006 Z" id="Shape"></path>
            </g>
        </g>
    </g>
</svg>
