<?xml version="1.0" encoding="UTF-8"?>
<svg width="40px" height="40px" viewBox="0 0 40 40" version="1.1" xmlns="http://www.w3.org/2000/svg" xmlns:xlink="http://www.w3.org/1999/xlink">
    <!-- Generator: Sketch 48.2 (47327) - http://www.bohemiancoding.com/sketch -->
    <title>close</title>
    <desc>Created with Sketch.</desc>
    <defs></defs>
    <g id="desktop/search-field/auto-suggestions" stroke="none" stroke-width="1" fill="none" fill-rule="evenodd" transform="translate(-1289.000000, -30.000000)">
        <g id="search-input" fill="#000000" fill-rule="nonzero">
            <g id="desktop/header">
                <g id="header">
                    <g id="close" transform="translate(1289.000000, 30.000000)">
                        <path d="M38.8860759,1.41772152 C38.3797468,0.911392405 37.5696203,0.911392405 37.1139241,1.41772152 L20,18.4810127 L2.43037975,0.860759494 C1.92405063,0.35443038 1.11392405,0.35443038 0.658227848,0.860759494 C0.151898734,1.36708861 0.151898734,2.17721519 0.658227848,2.63291139 L18.2278481,20.2531646 L0.607594937,37.8734177 C0.101265823,38.3797468 0.101265823,39.1898734 0.607594937,39.6455696 C0.860759494,39.8987342 1.16455696,40 1.51898734,40 C1.87341772,40 2.17721519,39.8987342 2.43037975,39.6455696 L20.0506329,22.0253165 L37.1139241,39.0886076 C37.3670886,39.3417722 37.6708861,39.443038 38.0253165,39.443038 C38.3797468,39.443038 38.6835443,39.3417722 38.9367089,39.0886076 C39.443038,38.5822785 39.443038,37.7721519 38.9367089,37.3164557 L21.8227848,20.2531646 L38.8860759,3.18987342 C39.3417722,2.6835443 39.3417722,1.87341772 38.8860759,1.41772152 Z" id="Shape"></path>
                    </g>
                </g>
            </g>
        </g>
    </g>
</svg>