<?xml version="1.0" encoding="UTF-8"?>
<svg width="36px" height="30px" viewBox="0 0 36 30" version="1.1" xmlns="http://www.w3.org/2000/svg" xmlns:xlink="http://www.w3.org/1999/xlink">
    <!-- Generator: Sketch 48.2 (47327) - http://www.bohemiancoding.com/sketch -->
    <title>filter-icon</title>
    <desc>Created with Sketch.</desc>
    <defs></defs>
    <g id="Desktop-HD/03.Homepage---search-user-input" stroke="none" stroke-width="1" fill="none" fill-rule="evenodd" transform="translate(-127.000000, -167.000000)">
        <g id="filter-button" transform="translate(101.000000, 152.000000)" fill="#111111" fill-rule="nonzero">
            <g id="filter-icon" transform="translate(26.000000, 15.000000)">
                <path d="M32.0454545,12.4707983 L32.0454545,1.36363636 C32.0454545,0.610520795 31.4349337,0 30.6818182,0 C29.9287026,0 29.3181818,0.610520795 29.3181818,1.36363636 L29.3181818,12.4709519 C27.3493714,13.0583129 25.9090909,14.8841071 25.9090909,17.0454545 C25.9090909,19.2031147 27.3467121,21.0322175 29.3181818,21.6201108 L29.3181818,28.6363636 C29.3181818,29.3894792 29.9287026,30 30.6818182,30 C31.4349337,30 32.0454545,29.3894792 32.0454545,28.6363636 L32.0454545,21.6199572 C34.014265,21.0325962 35.4545455,19.206802 35.4545455,17.0454545 C35.4545455,14.8877944 34.0169242,13.0586916 32.0454545,12.4707983 Z M19.0909091,2.24352559 L19.0909091,1.36363636 C19.0909091,0.610520795 18.4803883,0 17.7272727,0 C16.9741572,0 16.3636364,0.610520795 16.3636364,1.36363636 L16.3636364,2.2436792 C14.394826,2.83104014 12.9545455,4.65683434 12.9545455,6.81818182 C12.9545455,8.97584195 14.3921667,10.8049447 16.3636364,11.392838 L16.3636364,28.6363636 C16.3636364,29.3894792 16.9741572,30 17.7272727,30 C18.4803883,30 19.0909091,29.3894792 19.0909091,28.6363636 L19.0909091,11.3926844 C21.0597195,10.8053235 22.5,8.9795293 22.5,6.81818182 C22.5,4.66052168 21.0623788,2.83141889 19.0909091,2.24352559 Z M6.13636364,18.607162 L6.13636364,1.36363636 C6.13636364,0.610520795 5.52584284,0 4.77272727,0 C4.0196117,0 3.40909091,0.610520795 3.40909091,1.36363636 L3.40909091,18.6073156 C1.4402805,19.1946765 0,21.0204707 0,23.1818182 C0,25.3394783 1.4376212,27.1685811 3.40909091,27.7564744 L3.40909091,28.6363636 C3.40909091,29.3894792 4.0196117,30 4.77272727,30 C5.52584284,30 6.13636364,29.3894792 6.13636364,28.6363636 L6.13636364,27.7563208 C8.10517405,27.1689599 9.54545455,25.3431657 9.54545455,23.1818182 C9.54545455,21.024158 8.10783334,19.1950552 6.13636364,18.607162 Z" id="Shape"></path>
            </g>
        </g>
    </g>
</svg>