<?xml version="1.0" encoding="UTF-8"?>
<svg width="31px" height="30px" viewBox="0 0 31 30" version="1.1" xmlns="http://www.w3.org/2000/svg" xmlns:xlink="http://www.w3.org/1999/xlink">
    <!-- Generator: Sketch 48.2 (47327) - http://www.bohemiancoding.com/sketch -->
    <title>instagram</title>
    <desc>Created with Sketch.</desc>
    <defs></defs>
    <g id="desktop/footer" stroke="none" stroke-width="1" fill="none" fill-rule="evenodd" transform="translate(-424.000000, -49.000000)" opacity="0.5">
        <g id="footer" fill="#000000" fill-rule="nonzero">
            <g id="join-the-club" transform="translate(114.000000, 0.000000)">
                <g transform="translate(2.000000, 49.000000)" id="instagram">
                    <g transform="translate(308.967608, 0.000000)">
                        <path d="M3.852,0.0012 L26.1498,0.0012 C28.2682,0.0012 30,1.7336 30,3.852 L30,26.1498 C30,28.2676 28.2682,29.9988 26.1498,29.9988 L3.852,29.9988 C1.7336,29.9988 0,28.2675 0,26.1498 L0,3.852 C0,1.7336 1.7336,0.0012 3.852,0.0012 Z M21.8546,3.3329 C21.1108,3.3329 20.5041,3.942 20.5041,4.6854 L20.5041,7.9168 C20.5041,8.6605 21.1108,9.2682 21.8546,9.2682 L25.2449,9.2682 C25.9875,9.2682 26.5955,8.6605 26.5955,7.9168 L26.5955,4.6854 C26.5955,3.942 25.9875,3.3329 25.2449,3.3329 L21.8546,3.3329 Z M26.6084,12.6868 L23.9688,12.6868 C24.2191,13.5043 24.3548,14.3664 24.3548,15.2627 C24.3548,20.2509 20.1782,24.2967 15.0282,24.2967 C9.8795,24.2967 5.7028,20.2509 5.7028,15.2627 C5.7028,14.3664 5.8398,13.5043 6.0889,12.6868 L3.335,12.6868 L3.335,25.36 C3.335,26.0163 3.8709,26.5502 4.5266,26.5502 L25.4173,26.5502 C26.0736,26.5502 26.6084,26.0163 26.6084,25.36 L26.6084,12.6868 Z M15.0283,9.0978 C11.7023,9.0978 9.0043,11.7106 9.0043,14.9366 C9.0043,18.1593 11.7023,20.7741 15.0283,20.7741 C18.3561,20.7741 21.0542,18.1593 21.0542,14.9366 C21.0542,11.7105 18.3561,9.0978 15.0283,9.0978 Z"></path>
                    </g>
                </g>
            </g>
        </g>
    </g>
</svg>