<?xml version="1.0" encoding="UTF-8"?>
<svg width="30px" height="30px" viewBox="0 0 30 30" version="1.1" xmlns="http://www.w3.org/2000/svg" xmlns:xlink="http://www.w3.org/1999/xlink">
    <!-- Generator: Sketch 48.2 (47327) - http://www.bohemiancoding.com/sketch -->
    <title>pinterest</title>
    <desc>Created with Sketch.</desc>
    <defs></defs>
    <g id="desktop/footer" stroke="none" stroke-width="1" fill="none" fill-rule="evenodd" transform="translate(-369.000000, -49.000000)" opacity="0.5">
        <g id="footer" fill="#000000" fill-rule="nonzero">
            <g id="join-the-club" transform="translate(114.000000, 0.000000)">
                <g transform="translate(2.000000, 49.000000)" id="pinterest-sign">
                    <g transform="translate(253.000000, 0.000000)">
                        <path d="M28.3191116,1.64883827 C27.2204556,0.549908884 25.8968337,0.000341685649 24.3490661,0.000341685649 L24.3490661,0 L5.61895216,0 C4.07125285,0 2.74763098,0.549703872 1.64849658,1.64863326 C0.549567198,2.74776765 0,4.07138952 0,5.61908884 L0,24.3495444 C0,25.8971754 0.549567198,27.2209339 1.64849658,28.31959 C2.74763098,29.4187244 4.07132118,29.9682916 5.6190205,29.9682916 L9.18963554,29.9682916 C8.96829157,27.9657403 9.0138041,26.3135535 9.32610478,25.0130296 L11.238041,16.9357175 C10.925877,16.2982005 10.7696583,15.5115034 10.7696583,14.5751481 C10.7696583,13.4956948 11.046082,12.588246 11.5990661,11.8534852 C12.1516401,11.1183827 12.8248292,10.7509339 13.6182232,10.7509339 C14.2555353,10.7509339 14.7466059,10.9622323 15.0911617,11.3848292 C15.4356492,11.8077677 15.6082005,12.3377904 15.6082005,12.9751708 C15.6082005,13.3782232 15.5366515,13.8628702 15.3937585,14.4284966 C15.2503872,14.9946697 15.0589066,15.6578815 14.8182232,16.4188838 C14.5776082,17.1798178 14.4053303,17.7811162 14.3011845,18.2232574 C14.1192027,19.0039408 14.268656,19.6767882 14.7499544,20.2429613 C15.2311845,20.8083827 15.8619362,21.0918451 16.6426196,21.0918451 C18.0214579,21.0918451 19.1496355,20.3243508 20.0279727,18.7892938 C20.9058998,17.2547153 21.3446241,15.3945786 21.3446241,13.2096355 C21.3446241,11.5318907 20.8016173,10.1658998 19.7150569,9.11248292 C18.6294533,8.05886105 17.1173576,7.53198178 15.1791116,7.53198178 C13.0073576,7.53198178 11.2479499,8.2247836 9.90157175,9.60990888 C8.55526196,10.9951708 7.88207289,12.6634852 7.88207289,14.6144419 C7.88207289,15.7589522 8.20742597,16.7346014 8.8577221,17.5411845 C9.07872437,17.7881549 9.15041002,18.0615718 9.07230068,18.3608884 C9.0071754,18.5820957 8.90965831,18.9787244 8.77961276,19.5507745 C8.72747153,19.7331663 8.63330296,19.8564465 8.4966287,19.9217084 C8.35981777,19.986697 8.20708428,19.986697 8.03801822,19.9217084 C7.03653759,19.505672 6.27854214,18.7898405 5.76492027,17.7753075 C5.25123007,16.7610478 4.9943508,15.5900911 4.9943508,14.2636674 C4.9943508,13.4050797 5.1342369,12.5430068 5.41394077,11.6784055 C5.69364465,10.8132574 6.12615034,9.98084282 6.71138952,9.18102506 C7.2966287,8.3808656 7.99558087,7.66879271 8.80865604,7.04432802 C9.62145786,6.42027335 10.6167198,5.92271071 11.7937585,5.55198178 C12.9706606,5.18132118 14.2358542,4.99592255 15.5881093,4.99592255 C16.967221,4.99592255 18.2482688,5.23373576 19.4320729,5.70840547 C20.6156036,6.18300683 21.6074487,6.81375854 22.4077449,7.60066059 C23.2074943,8.38763098 23.8352392,9.29159453 24.2900911,10.3127563 C24.7456264,11.3335763 24.9731891,12.390615 24.9731891,13.4830524 C24.9731891,16.4228474 24.2285877,18.8518907 22.739385,20.7703189 C21.2501139,22.6888838 19.3282688,23.6484055 16.9742597,23.6484055 C16.1931663,23.6484055 15.4620957,23.4662187 14.7789977,23.1021185 C14.0962415,22.7380182 13.6182232,22.3023007 13.3450114,21.7948292 C12.7727563,24.0712756 12.4281321,25.4301595 12.3110023,25.8724374 C12.0118907,27.0171526 11.3095216,28.3826651 10.2039636,29.9696583 L24.348861,29.9696583 C25.896492,29.9696583 27.2201822,29.4200911 28.3189066,28.3209567 C29.418041,27.2218223 29.9676082,25.8981321 29.9676082,24.3504328 L29.9676082,5.61922551 C29.9676082,4.07166287 29.418041,2.74797267 28.3191116,1.64883827 Z" id="pinterest"></path>
                    </g>
                </g>
            </g>
        </g>
    </g>
</svg>