<?xml version="1.0" encoding="UTF-8"?>
<svg width="16px" height="20px" viewBox="0 0 16 20" version="1.1" xmlns="http://www.w3.org/2000/svg" xmlns:xlink="http://www.w3.org/1999/xlink">
    <!-- Generator: Sketch 48.2 (47327) - http://www.bohemiancoding.com/sketch -->
    <title>sustainable</title>
    <desc>Created with Sketch.</desc>
    <defs></defs>
    <g id="Desktop-HD/03.Homepage---search-user-input" stroke="none" stroke-width="1" fill="none" fill-rule="evenodd" transform="translate(-123.000000, -518.000000)">
        <g id="pics" transform="translate(107.000000, 264.000000)" fill="#FFFFFF" fill-rule="nonzero">
            <g id="Row-1">
                <g id="hover-product" transform="translate(0.000000, 236.000000)">
                    <g id="sustainable-fashion-labels" transform="translate(0.000000, 13.000000)">
                        <g id="Group-3" transform="translate(16.000000, 5.000000)">
                            <g id="sustainable">
                                <path d="M12.4040404,5.57575758 C12.3838384,5.5959596 12.3636364,5.61616162 12.3434343,5.61616162 C12.5454545,5.31313131 12.7474747,5.03030303 12.9494949,4.72727273 C12.989899,4.66666667 13.030303,4.66666667 13.0909091,4.66666667 C13.1919192,4.68686869 13.2727273,4.76767677 13.2929293,4.86868687 C13.3131313,5.03030303 13.4545455,5.13131313 13.6161616,5.11111111 C13.7777778,5.09090909 13.8787879,4.94949495 13.8585859,4.78787879 C13.8181818,4.44444444 13.5353535,4.16161616 13.1919192,4.12121212 C12.9090909,4.08080808 12.6666667,4.18181818 12.5050505,4.42424242 C12,5.15151515 11.4949495,5.8989899 10.9090909,6.58585859 C9.07070707,6.46464646 5.23232323,6.52525253 3.03030303,8.76767677 C1.29292929,10.5454545 1.11111111,13.8787879 1.27272727,16.4242424 L0.101010101,17.5959596 C-3.12250226e-17,17.6969697 -3.12250226e-17,17.8787879 0.101010101,17.979798 C0.161616162,18.040404 0.222222222,18.0606061 0.303030303,18.0606061 C0.383838384,18.0606061 0.444444444,18.040404 0.505050505,17.979798 L1.35353535,17.1313131 C1.45454545,18.5858586 1.67676768,19.6565657 1.71717172,19.8181818 L1.71717172,19.8383838 C1.73737374,19.9393939 1.81818182,20 1.91919192,20 C1.93939394,20 1.95959596,20 1.95959596,20 C2.08080808,19.979798 2.14141414,19.8585859 2.12121212,19.7575758 C2.08080808,19.5959596 1.67676768,16.8282828 7.91919192,14.5454545 C13.1111111,12.6464646 12.4848485,9.63636364 12.1414141,8.02020202 C12.040404,7.57575758 11.959596,7.15151515 12.0606061,6.98989899 C12.1010101,6.92929293 12.1010101,6.84848485 12.0606061,6.78787879 C12.020202,6.72727273 11.979798,6.68686869 11.8989899,6.66666667 C11.8787879,6.66666667 11.8585859,6.66666667 11.8181818,6.64646465 C12.1010101,6.44444444 12.3838384,6.22222222 12.7070707,6 C12.8282828,5.91919192 12.8686869,5.73737374 12.7676768,5.61616162 C12.7070707,5.51515152 12.5252525,5.49494949 12.4040404,5.57575758 Z M11.6161616,7.07070707 C11.5757576,7.33333333 11.6565657,7.67676768 11.7373737,8.12121212 C12.0606061,9.71717172 12.6262626,12.3838384 7.77777778,14.1616162 C3.75757576,15.6363636 2.36363636,17.3131313 1.8989899,18.4646465 C1.83838384,17.979798 1.75757576,17.3939394 1.71717172,16.7474747 L3.97979798,14.4848485 C4.04040404,14.5858586 4.08080808,14.7070707 4.12121212,14.8484848 C4.14141414,14.9494949 4.22222222,15.010101 4.32323232,15.010101 C4.34343434,15.010101 4.36363636,15.010101 4.38383838,15.010101 C4.48484848,14.989899 4.56565657,14.8686869 4.52525253,14.7474747 C4.26262626,13.7777778 3.61616162,13.6363636 3.31313131,13.6969697 C3.19191919,13.7171717 3.13131313,13.8181818 3.15151515,13.9393939 C3.17171717,14.0606061 3.27272727,14.1212121 3.39393939,14.1010101 C3.41414141,14.1010101 3.47474747,14.1010101 3.57575758,14.1212121 L1.6969697,16 C1.57575758,13.5959596 1.81818182,10.6262626 3.33333333,9.05050505 C5.05050505,7.29292929 7.95959596,6.96969697 9.87878788,6.96969697 C10.1212121,6.96969697 10.3434343,6.96969697 10.5454545,6.98989899 C10.4848485,7.05050505 10.4242424,7.13131313 10.3636364,7.19191919 C10.3030303,7.25252525 10.2424242,7.31313131 10.1818182,7.37373737 L9.53535354,8.02020202 C9.35353535,7.93939394 9.17171717,7.91919192 9.05050505,7.93939394 C8.92929293,7.95959596 8.86868687,8.06060606 8.88888889,8.18181818 C8.90909091,8.3030303 9.01010101,8.36363636 9.13131313,8.34343434 C9.19191919,8.34343434 9.63636364,8.28282828 9.85858586,9.09090909 C9.87878788,9.19191919 9.95959596,9.25252525 10.0606061,9.25252525 C10.0808081,9.25252525 10.1010101,9.25252525 10.1212121,9.25252525 C10.2222222,9.23232323 10.3030303,9.11111111 10.2626263,8.98989899 C10.1818182,8.72727273 10.0808081,8.52525253 9.97979798,8.36363636 L10.6060606,7.75757576 C10.6666667,7.6969697 10.7272727,7.63636364 10.7878788,7.57575758 C10.989899,7.37373737 11.1919192,7.19191919 11.3939394,7.03030303 C11.4545455,7.07070707 11.5353535,7.07070707 11.6161616,7.07070707 Z" id="Shape"></path>
                                <path d="M11.6767677,4.62626263 C11.7171717,4.66666667 11.7575758,4.68686869 11.8181818,4.68686869 C11.8787879,4.68686869 11.9393939,4.66666667 11.979798,4.62626263 C12.0606061,4.54545455 12.040404,4.4040404 11.959596,4.32323232 C11.8989899,4.26262626 11.8383838,4.22222222 11.7777778,4.16161616 C10.969697,3.35353535 10.2424242,2.02020202 11.4949495,0.343434343 C11.5555556,0.242424242 11.5353535,0.121212121 11.4545455,0.0606060606 C11.3535354,-1.49186219e-16 11.2323232,0.0202020202 11.1717172,0.101010101 C10.0606061,1.5959596 10.1818182,3.15151515 11.4949495,4.46464646 C11.5555556,4.50505051 11.6161616,4.56565657 11.6767677,4.62626263 Z" id="Shape"></path>
                                <path d="M15.7777778,8.22222222 C15.3939394,6.46464646 13.3333333,5.33333333 13.2525253,5.27272727 C13.1515152,5.21212121 13.030303,5.25252525 12.969697,5.35353535 C12.9090909,5.45454545 12.9494949,5.57575758 13.0505051,5.63636364 C13.0707071,5.65656566 15.030303,6.74747475 15.3737374,8.3030303 C15.5151515,8.96969697 15.3333333,9.65656566 14.8282828,10.3030303 C14.7676768,10.4040404 14.7676768,10.5252525 14.8686869,10.5858586 C14.9090909,10.6060606 14.9494949,10.6262626 14.989899,10.6262626 C15.0505051,10.6262626 15.1111111,10.6060606 15.1515152,10.5454545 C15.7373737,9.81818182 15.9393939,9.03030303 15.7777778,8.22222222 Z" id="Shape"></path>
                                <path d="M7.27272727,9.73737374 C7.15151515,9.75757576 7.09090909,9.85858586 7.11111111,9.97979798 C7.13131313,10.1010101 7.23232323,10.1616162 7.35353535,10.1414141 C7.37373737,10.1414141 7.39393939,10.1414141 7.45454545,10.1414141 C7.43434343,10.1616162 7.39393939,10.1616162 7.37373737,10.1818182 L6.16161616,11.3939394 C6.12121212,11.4343434 6.1010101,11.4747475 6.1010101,11.5353535 C5.8989899,11.4343434 5.6969697,11.4141414 5.57575758,11.4343434 C5.45454545,11.4545455 5.39393939,11.5555556 5.41414141,11.6767677 C5.43434343,11.7979798 5.53535354,11.8585859 5.65656566,11.8383838 C5.71717172,11.8383838 6.16161616,11.7777778 6.38383838,12.5858586 C6.4040404,12.6868687 6.48484848,12.7474747 6.58585859,12.7474747 C6.60606061,12.7474747 6.62626263,12.7474747 6.64646465,12.7474747 C6.74747475,12.7272727 6.82828283,12.6060606 6.78787879,12.4848485 C6.70707071,12.2020202 6.60606061,12 6.48484848,11.8383838 C6.52525253,11.8181818 6.54545455,11.7979798 6.56565657,11.7777778 L7.77777778,10.5656566 C7.83838384,10.5050505 7.85858586,10.4444444 7.85858586,10.3838384 C7.93939394,10.5050505 8.02020202,10.6666667 8.08080808,10.8888889 C8.1010101,10.989899 8.18181818,11.0505051 8.28282828,11.0505051 C8.3030303,11.0505051 8.32323232,11.0505051 8.34343434,11.0505051 C8.44444444,11.030303 8.52525253,10.9090909 8.48484848,10.7878788 C8.22222222,9.81818182 7.57575758,9.67676768 7.27272727,9.73737374 Z" id="Shape"></path>
                            </g>
                        </g>
                    </g>
                </g>
            </g>
        </g>
    </g>
</svg>