<?xml version="1.0" encoding="UTF-8"?>
<svg width="23px" height="20px" viewBox="0 0 23 20" version="1.1" xmlns="http://www.w3.org/2000/svg" xmlns:xlink="http://www.w3.org/1999/xlink">
    <!-- Generator: Sketch 48.2 (47327) - http://www.bohemiancoding.com/sketch -->
    <title>workers condition</title>
    <desc>Created with Sketch.</desc>
    <defs></defs>
    <g id="Desktop-HD/03.Homepage---search-user-input" stroke="none" stroke-width="1" fill="none" fill-rule="evenodd" transform="translate(-185.000000, -518.000000)">
        <g id="pics" transform="translate(107.000000, 264.000000)" fill="#FFFFFF" fill-rule="nonzero">
            <g id="Row-1">
                <g id="hover-product" transform="translate(0.000000, 236.000000)">
                    <g id="sustainable-fashion-labels" transform="translate(0.000000, 13.000000)">
                        <g id="Group-3" transform="translate(16.000000, 5.000000)">
                            <g id="workers-condition" transform="translate(62.959596, 0.000000)">
                                <path d="M19.8692913,14.273913 L19.8692913,9.64347826 L20.5795276,9.64347826 C20.9692913,9.64347826 21.2897638,9.32608696 21.2897638,8.93043478 L21.2897638,5.36956522 C21.2897638,4.97826087 20.973622,4.65652174 20.5795276,4.65652174 L19.8692913,4.65652174 L19.8692913,1.45217391 L5.67755906,1.45217391 L5.67755906,0.0260869565 L4.96732283,0.0260869565 L4.96732283,1.45217391 L1.42047244,1.45217391 L1.42047244,6.79565217 L2.13070866,6.79565217 L2.13070866,10.3565217 L3.5511811,10.3565217 L3.5511811,12.4956522 L4.26141732,12.4956522 L4.26141732,10.3565217 L5.68188976,10.3565217 L5.68188976,6.79565217 L11.3594488,6.79565217 L11.3594488,14.2782609 L0,14.2782609 L0,19.9782609 L22,19.9782609 L22,14.273913 L19.8692913,14.273913 Z M19.8692913,5.36956522 L20.5795276,5.36956522 L20.5795276,8.93043478 L19.8692913,8.93043478 L19.8692913,5.36956522 Z M4.96732283,9.64347826 L2.83661417,9.64347826 L2.83661417,6.79565217 L4.96732283,6.79565217 L4.96732283,9.64347826 Z M21.2897638,19.2608696 L0.71023622,19.2608696 L0.71023622,14.9869565 L12.0653543,14.9869565 L12.0653543,6.0826087 L2.13070866,6.0826087 L2.13070866,2.16086957 L19.1633858,2.16086957 L19.1633858,14.9869565 L21.2940945,14.9869565 L21.2940945,19.2608696 L21.2897638,19.2608696 Z" id="Shape"></path>
                                <path d="M15.6122047,3.23043478 C14.4385827,3.23043478 13.4814961,4.19130435 13.4814961,5.36956522 C13.4814961,6.54782609 14.4385827,7.50869565 15.6122047,7.50869565 C16.7858268,7.50869565 17.7429134,6.54782609 17.7429134,5.36956522 C17.7429134,4.19130435 16.7858268,3.23043478 15.6122047,3.23043478 Z M15.6122047,6.79565217 C14.8283465,6.79565217 14.1917323,6.15652174 14.1917323,5.36956522 C14.1917323,4.5826087 14.8283465,3.94347826 15.6122047,3.94347826 C16.396063,3.94347826 17.0326772,4.5826087 17.0326772,5.36956522 C17.0326772,6.15652174 16.396063,6.79565217 15.6122047,6.79565217 Z" id="Shape"></path>
                                <rect id="Rectangle-path" x="14.1917323" y="10" width="2.83661417" height="1"></rect>
                                <rect id="Rectangle-path" x="14.1917323" y="12.1391304" width="2.83661417" height="1"></rect>
                            </g>
                        </g>
                    </g>
                </g>
            </g>
        </g>
    </g>
</svg>